<mxfile host="app.diagrams.net" modified="2023-06-20T17:01:08.265Z" agent="Mozilla/5.0 (Windows NT 10.0; Win64; x64) AppleWebKit/537.36 (KHTML, like Gecko) Chrome/114.0.0.0 Safari/537.36" etag="0aYKnJOU-Mnu8HtM3Psp" version="21.5.0" type="github">
  <diagram name="Page-1" id="wEfG2d8G-uYvDhII6PVS">
    <mxGraphModel dx="3312" dy="2063" grid="1" gridSize="10" guides="1" tooltips="1" connect="1" arrows="1" fold="1" page="1" pageScale="1" pageWidth="850" pageHeight="1100" math="0" shadow="0">
      <root>
        <mxCell id="0" />
        <mxCell id="1" parent="0" />
        <mxCell id="VzqxZdW9rMvLeSnxfI6S-1" value="Student" style="whiteSpace=wrap;html=1;align=center;" vertex="1" parent="1">
          <mxGeometry x="620" y="250" width="100" height="40" as="geometry" />
        </mxCell>
        <mxCell id="VzqxZdW9rMvLeSnxfI6S-59" style="rounded=0;orthogonalLoop=1;jettySize=auto;html=1;entryX=1;entryY=0.5;entryDx=0;entryDy=0;endArrow=none;endFill=0;" edge="1" parent="1" source="VzqxZdW9rMvLeSnxfI6S-3" target="VzqxZdW9rMvLeSnxfI6S-56">
          <mxGeometry relative="1" as="geometry" />
        </mxCell>
        <mxCell id="VzqxZdW9rMvLeSnxfI6S-60" style="rounded=0;orthogonalLoop=1;jettySize=auto;html=1;exitX=0.5;exitY=1;exitDx=0;exitDy=0;entryX=1;entryY=0.5;entryDx=0;entryDy=0;endArrow=none;endFill=0;" edge="1" parent="1" source="VzqxZdW9rMvLeSnxfI6S-3" target="VzqxZdW9rMvLeSnxfI6S-54">
          <mxGeometry relative="1" as="geometry" />
        </mxCell>
        <mxCell id="VzqxZdW9rMvLeSnxfI6S-61" style="edgeStyle=orthogonalEdgeStyle;rounded=0;orthogonalLoop=1;jettySize=auto;html=1;exitX=0.5;exitY=1;exitDx=0;exitDy=0;" edge="1" parent="1" source="VzqxZdW9rMvLeSnxfI6S-3" target="VzqxZdW9rMvLeSnxfI6S-55">
          <mxGeometry relative="1" as="geometry" />
        </mxCell>
        <mxCell id="VzqxZdW9rMvLeSnxfI6S-3" value="Class" style="whiteSpace=wrap;html=1;align=center;" vertex="1" parent="1">
          <mxGeometry x="-40" y="570" width="100" height="40" as="geometry" />
        </mxCell>
        <mxCell id="VzqxZdW9rMvLeSnxfI6S-5" value="User" style="whiteSpace=wrap;html=1;align=center;" vertex="1" parent="1">
          <mxGeometry x="830" y="500" width="100" height="40" as="geometry" />
        </mxCell>
        <mxCell id="VzqxZdW9rMvLeSnxfI6S-6" value="Student" style="whiteSpace=wrap;html=1;align=center;" vertex="1" parent="1">
          <mxGeometry x="480" y="480" width="100" height="40" as="geometry" />
        </mxCell>
        <mxCell id="VzqxZdW9rMvLeSnxfI6S-7" value="ClassWork" style="whiteSpace=wrap;html=1;align=center;" vertex="1" parent="1">
          <mxGeometry x="390" y="610" width="100" height="40" as="geometry" />
        </mxCell>
        <mxCell id="VzqxZdW9rMvLeSnxfI6S-12" style="rounded=0;orthogonalLoop=1;jettySize=auto;html=1;exitX=0.5;exitY=1;exitDx=0;exitDy=0;endArrow=none;endFill=0;entryX=0.58;entryY=0;entryDx=0;entryDy=0;entryPerimeter=0;" edge="1" parent="1" source="VzqxZdW9rMvLeSnxfI6S-8" target="VzqxZdW9rMvLeSnxfI6S-9">
          <mxGeometry relative="1" as="geometry" />
        </mxCell>
        <mxCell id="VzqxZdW9rMvLeSnxfI6S-8" value="firstname" style="ellipse;whiteSpace=wrap;html=1;align=center;" vertex="1" parent="1">
          <mxGeometry x="592" y="-5" width="100" height="40" as="geometry" />
        </mxCell>
        <mxCell id="VzqxZdW9rMvLeSnxfI6S-15" style="rounded=0;orthogonalLoop=1;jettySize=auto;html=1;exitX=0.5;exitY=1;exitDx=0;exitDy=0;entryX=0.5;entryY=0;entryDx=0;entryDy=0;endArrow=none;endFill=0;" edge="1" parent="1" source="VzqxZdW9rMvLeSnxfI6S-9" target="VzqxZdW9rMvLeSnxfI6S-1">
          <mxGeometry relative="1" as="geometry" />
        </mxCell>
        <mxCell id="VzqxZdW9rMvLeSnxfI6S-17" style="rounded=0;orthogonalLoop=1;jettySize=auto;html=1;exitX=0.567;exitY=-0.006;exitDx=0;exitDy=0;entryX=1;entryY=0.5;entryDx=0;entryDy=0;endArrow=none;endFill=0;exitPerimeter=0;" edge="1" parent="1" source="VzqxZdW9rMvLeSnxfI6S-9" target="VzqxZdW9rMvLeSnxfI6S-16">
          <mxGeometry relative="1" as="geometry" />
        </mxCell>
        <mxCell id="VzqxZdW9rMvLeSnxfI6S-9" value="name" style="ellipse;shape=doubleEllipse;margin=3;whiteSpace=wrap;html=1;align=center;" vertex="1" parent="1">
          <mxGeometry x="672" y="75" width="100" height="40" as="geometry" />
        </mxCell>
        <mxCell id="VzqxZdW9rMvLeSnxfI6S-13" style="rounded=0;orthogonalLoop=1;jettySize=auto;html=1;exitX=0.5;exitY=1;exitDx=0;exitDy=0;entryX=0.57;entryY=-0.039;entryDx=0;entryDy=0;entryPerimeter=0;endArrow=none;endFill=0;" edge="1" parent="1" source="VzqxZdW9rMvLeSnxfI6S-10" target="VzqxZdW9rMvLeSnxfI6S-9">
          <mxGeometry relative="1" as="geometry" />
        </mxCell>
        <mxCell id="VzqxZdW9rMvLeSnxfI6S-10" value="middlename" style="ellipse;whiteSpace=wrap;html=1;align=center;" vertex="1" parent="1">
          <mxGeometry x="702" y="-5" width="100" height="40" as="geometry" />
        </mxCell>
        <mxCell id="VzqxZdW9rMvLeSnxfI6S-14" style="rounded=0;orthogonalLoop=1;jettySize=auto;html=1;exitX=0.5;exitY=1;exitDx=0;exitDy=0;entryX=0.556;entryY=-0.018;entryDx=0;entryDy=0;endArrow=none;endFill=0;entryPerimeter=0;" edge="1" parent="1" source="VzqxZdW9rMvLeSnxfI6S-11" target="VzqxZdW9rMvLeSnxfI6S-9">
          <mxGeometry relative="1" as="geometry" />
        </mxCell>
        <mxCell id="VzqxZdW9rMvLeSnxfI6S-11" value="lastname" style="ellipse;whiteSpace=wrap;html=1;align=center;" vertex="1" parent="1">
          <mxGeometry x="782" y="25" width="100" height="40" as="geometry" />
        </mxCell>
        <mxCell id="VzqxZdW9rMvLeSnxfI6S-16" value="ext." style="ellipse;whiteSpace=wrap;html=1;align=center;" vertex="1" parent="1">
          <mxGeometry x="510" y="25" width="100" height="40" as="geometry" />
        </mxCell>
        <mxCell id="VzqxZdW9rMvLeSnxfI6S-25" style="rounded=0;orthogonalLoop=1;jettySize=auto;html=1;exitX=0.5;exitY=1;exitDx=0;exitDy=0;entryX=0.5;entryY=0;entryDx=0;entryDy=0;endArrow=none;endFill=0;" edge="1" parent="1" source="VzqxZdW9rMvLeSnxfI6S-18" target="VzqxZdW9rMvLeSnxfI6S-1">
          <mxGeometry relative="1" as="geometry" />
        </mxCell>
        <mxCell id="VzqxZdW9rMvLeSnxfI6S-18" value="birthdate" style="ellipse;whiteSpace=wrap;html=1;align=center;" vertex="1" parent="1">
          <mxGeometry x="602" y="115" width="100" height="40" as="geometry" />
        </mxCell>
        <mxCell id="VzqxZdW9rMvLeSnxfI6S-26" style="rounded=0;orthogonalLoop=1;jettySize=auto;html=1;exitX=0.5;exitY=1;exitDx=0;exitDy=0;entryX=0.5;entryY=0;entryDx=0;entryDy=0;endArrow=none;endFill=0;" edge="1" parent="1" source="VzqxZdW9rMvLeSnxfI6S-19" target="VzqxZdW9rMvLeSnxfI6S-1">
          <mxGeometry relative="1" as="geometry" />
        </mxCell>
        <mxCell id="VzqxZdW9rMvLeSnxfI6S-19" value="address" style="ellipse;whiteSpace=wrap;html=1;align=center;" vertex="1" parent="1">
          <mxGeometry x="480" y="140" width="100" height="40" as="geometry" />
        </mxCell>
        <mxCell id="VzqxZdW9rMvLeSnxfI6S-27" style="rounded=0;orthogonalLoop=1;jettySize=auto;html=1;exitX=0.5;exitY=1;exitDx=0;exitDy=0;entryX=0.5;entryY=0;entryDx=0;entryDy=0;endArrow=none;endFill=0;" edge="1" parent="1" source="VzqxZdW9rMvLeSnxfI6S-20" target="VzqxZdW9rMvLeSnxfI6S-1">
          <mxGeometry relative="1" as="geometry" />
        </mxCell>
        <mxCell id="VzqxZdW9rMvLeSnxfI6S-20" value="&lt;u&gt;studentid&lt;/u&gt;" style="ellipse;whiteSpace=wrap;html=1;align=center;" vertex="1" parent="1">
          <mxGeometry x="730" y="120" width="100" height="40" as="geometry" />
        </mxCell>
        <mxCell id="VzqxZdW9rMvLeSnxfI6S-21" value="contactnumber" style="ellipse;whiteSpace=wrap;html=1;align=center;" vertex="1" parent="1">
          <mxGeometry x="802" y="160" width="100" height="40" as="geometry" />
        </mxCell>
        <mxCell id="VzqxZdW9rMvLeSnxfI6S-28" style="rounded=0;orthogonalLoop=1;jettySize=auto;html=1;endArrow=none;endFill=0;entryX=0.5;entryY=0;entryDx=0;entryDy=0;" edge="1" parent="1" source="VzqxZdW9rMvLeSnxfI6S-22" target="VzqxZdW9rMvLeSnxfI6S-1">
          <mxGeometry relative="1" as="geometry">
            <mxPoint x="670" y="230" as="targetPoint" />
          </mxGeometry>
        </mxCell>
        <mxCell id="VzqxZdW9rMvLeSnxfI6S-22" value="email" style="ellipse;whiteSpace=wrap;html=1;align=center;" vertex="1" parent="1">
          <mxGeometry x="510" y="80" width="100" height="40" as="geometry" />
        </mxCell>
        <mxCell id="VzqxZdW9rMvLeSnxfI6S-29" style="rounded=0;orthogonalLoop=1;jettySize=auto;html=1;entryX=0.5;entryY=0;entryDx=0;entryDy=0;endArrow=none;endFill=0;" edge="1" parent="1" source="VzqxZdW9rMvLeSnxfI6S-23" target="VzqxZdW9rMvLeSnxfI6S-1">
          <mxGeometry relative="1" as="geometry" />
        </mxCell>
        <mxCell id="VzqxZdW9rMvLeSnxfI6S-23" value="course" style="ellipse;whiteSpace=wrap;html=1;align=center;" vertex="1" parent="1">
          <mxGeometry x="460" y="200" width="100" height="40" as="geometry" />
        </mxCell>
        <mxCell id="VzqxZdW9rMvLeSnxfI6S-24" style="rounded=0;orthogonalLoop=1;jettySize=auto;html=1;exitX=0.5;exitY=1;exitDx=0;exitDy=0;endArrow=none;endFill=0;" edge="1" parent="1" source="VzqxZdW9rMvLeSnxfI6S-21">
          <mxGeometry relative="1" as="geometry">
            <mxPoint x="670" y="250" as="targetPoint" />
          </mxGeometry>
        </mxCell>
        <mxCell id="VzqxZdW9rMvLeSnxfI6S-53" value="" style="group" vertex="1" connectable="0" parent="1">
          <mxGeometry x="-150" width="442" height="295" as="geometry" />
        </mxCell>
        <mxCell id="VzqxZdW9rMvLeSnxfI6S-30" value="Instructor" style="whiteSpace=wrap;html=1;align=center;" vertex="1" parent="VzqxZdW9rMvLeSnxfI6S-53">
          <mxGeometry x="160" y="255" width="100" height="40" as="geometry" />
        </mxCell>
        <mxCell id="VzqxZdW9rMvLeSnxfI6S-32" value="firstname" style="ellipse;whiteSpace=wrap;html=1;align=center;" vertex="1" parent="VzqxZdW9rMvLeSnxfI6S-53">
          <mxGeometry x="132" width="100" height="40" as="geometry" />
        </mxCell>
        <mxCell id="VzqxZdW9rMvLeSnxfI6S-33" style="rounded=0;orthogonalLoop=1;jettySize=auto;html=1;exitX=0.5;exitY=1;exitDx=0;exitDy=0;entryX=0.5;entryY=0;entryDx=0;entryDy=0;endArrow=none;endFill=0;" edge="1" source="VzqxZdW9rMvLeSnxfI6S-35" target="VzqxZdW9rMvLeSnxfI6S-30" parent="VzqxZdW9rMvLeSnxfI6S-53">
          <mxGeometry relative="1" as="geometry" />
        </mxCell>
        <mxCell id="VzqxZdW9rMvLeSnxfI6S-35" value="name" style="ellipse;shape=doubleEllipse;margin=3;whiteSpace=wrap;html=1;align=center;" vertex="1" parent="VzqxZdW9rMvLeSnxfI6S-53">
          <mxGeometry x="212" y="80" width="100" height="40" as="geometry" />
        </mxCell>
        <mxCell id="VzqxZdW9rMvLeSnxfI6S-31" style="rounded=0;orthogonalLoop=1;jettySize=auto;html=1;exitX=0.5;exitY=1;exitDx=0;exitDy=0;endArrow=none;endFill=0;entryX=0.58;entryY=0;entryDx=0;entryDy=0;entryPerimeter=0;" edge="1" source="VzqxZdW9rMvLeSnxfI6S-32" target="VzqxZdW9rMvLeSnxfI6S-35" parent="VzqxZdW9rMvLeSnxfI6S-53">
          <mxGeometry relative="1" as="geometry" />
        </mxCell>
        <mxCell id="VzqxZdW9rMvLeSnxfI6S-36" style="rounded=0;orthogonalLoop=1;jettySize=auto;html=1;exitX=0.5;exitY=1;exitDx=0;exitDy=0;entryX=0.57;entryY=-0.039;entryDx=0;entryDy=0;entryPerimeter=0;endArrow=none;endFill=0;" edge="1" source="VzqxZdW9rMvLeSnxfI6S-37" target="VzqxZdW9rMvLeSnxfI6S-35" parent="VzqxZdW9rMvLeSnxfI6S-53">
          <mxGeometry relative="1" as="geometry" />
        </mxCell>
        <mxCell id="VzqxZdW9rMvLeSnxfI6S-37" value="middlename" style="ellipse;whiteSpace=wrap;html=1;align=center;" vertex="1" parent="VzqxZdW9rMvLeSnxfI6S-53">
          <mxGeometry x="242" width="100" height="40" as="geometry" />
        </mxCell>
        <mxCell id="VzqxZdW9rMvLeSnxfI6S-38" style="rounded=0;orthogonalLoop=1;jettySize=auto;html=1;exitX=0.5;exitY=1;exitDx=0;exitDy=0;entryX=0.556;entryY=-0.018;entryDx=0;entryDy=0;endArrow=none;endFill=0;entryPerimeter=0;" edge="1" source="VzqxZdW9rMvLeSnxfI6S-39" target="VzqxZdW9rMvLeSnxfI6S-35" parent="VzqxZdW9rMvLeSnxfI6S-53">
          <mxGeometry relative="1" as="geometry" />
        </mxCell>
        <mxCell id="VzqxZdW9rMvLeSnxfI6S-39" value="lastname" style="ellipse;whiteSpace=wrap;html=1;align=center;" vertex="1" parent="VzqxZdW9rMvLeSnxfI6S-53">
          <mxGeometry x="322" y="30" width="100" height="40" as="geometry" />
        </mxCell>
        <mxCell id="VzqxZdW9rMvLeSnxfI6S-40" value="ext." style="ellipse;whiteSpace=wrap;html=1;align=center;" vertex="1" parent="VzqxZdW9rMvLeSnxfI6S-53">
          <mxGeometry x="50" y="30" width="100" height="40" as="geometry" />
        </mxCell>
        <mxCell id="VzqxZdW9rMvLeSnxfI6S-34" style="rounded=0;orthogonalLoop=1;jettySize=auto;html=1;exitX=0.567;exitY=-0.006;exitDx=0;exitDy=0;entryX=1;entryY=0.5;entryDx=0;entryDy=0;endArrow=none;endFill=0;exitPerimeter=0;" edge="1" source="VzqxZdW9rMvLeSnxfI6S-35" target="VzqxZdW9rMvLeSnxfI6S-40" parent="VzqxZdW9rMvLeSnxfI6S-53">
          <mxGeometry relative="1" as="geometry" />
        </mxCell>
        <mxCell id="VzqxZdW9rMvLeSnxfI6S-41" style="rounded=0;orthogonalLoop=1;jettySize=auto;html=1;exitX=0.5;exitY=1;exitDx=0;exitDy=0;entryX=0.5;entryY=0;entryDx=0;entryDy=0;endArrow=none;endFill=0;" edge="1" source="VzqxZdW9rMvLeSnxfI6S-42" target="VzqxZdW9rMvLeSnxfI6S-30" parent="VzqxZdW9rMvLeSnxfI6S-53">
          <mxGeometry relative="1" as="geometry" />
        </mxCell>
        <mxCell id="VzqxZdW9rMvLeSnxfI6S-42" value="birthdate" style="ellipse;whiteSpace=wrap;html=1;align=center;" vertex="1" parent="VzqxZdW9rMvLeSnxfI6S-53">
          <mxGeometry x="142" y="120" width="100" height="40" as="geometry" />
        </mxCell>
        <mxCell id="VzqxZdW9rMvLeSnxfI6S-43" style="rounded=0;orthogonalLoop=1;jettySize=auto;html=1;exitX=0.5;exitY=1;exitDx=0;exitDy=0;entryX=0.5;entryY=0;entryDx=0;entryDy=0;endArrow=none;endFill=0;" edge="1" source="VzqxZdW9rMvLeSnxfI6S-44" target="VzqxZdW9rMvLeSnxfI6S-30" parent="VzqxZdW9rMvLeSnxfI6S-53">
          <mxGeometry relative="1" as="geometry" />
        </mxCell>
        <mxCell id="VzqxZdW9rMvLeSnxfI6S-44" value="address" style="ellipse;whiteSpace=wrap;html=1;align=center;" vertex="1" parent="VzqxZdW9rMvLeSnxfI6S-53">
          <mxGeometry x="20" y="145" width="100" height="40" as="geometry" />
        </mxCell>
        <mxCell id="VzqxZdW9rMvLeSnxfI6S-45" style="rounded=0;orthogonalLoop=1;jettySize=auto;html=1;exitX=0.5;exitY=1;exitDx=0;exitDy=0;entryX=0.5;entryY=0;entryDx=0;entryDy=0;endArrow=none;endFill=0;" edge="1" source="VzqxZdW9rMvLeSnxfI6S-46" target="VzqxZdW9rMvLeSnxfI6S-30" parent="VzqxZdW9rMvLeSnxfI6S-53">
          <mxGeometry relative="1" as="geometry" />
        </mxCell>
        <mxCell id="VzqxZdW9rMvLeSnxfI6S-46" value="&lt;u&gt;instructorid&lt;/u&gt;" style="ellipse;whiteSpace=wrap;html=1;align=center;" vertex="1" parent="VzqxZdW9rMvLeSnxfI6S-53">
          <mxGeometry x="270" y="125" width="100" height="40" as="geometry" />
        </mxCell>
        <mxCell id="VzqxZdW9rMvLeSnxfI6S-47" value="contactnumber" style="ellipse;whiteSpace=wrap;html=1;align=center;" vertex="1" parent="VzqxZdW9rMvLeSnxfI6S-53">
          <mxGeometry x="342" y="165" width="100" height="40" as="geometry" />
        </mxCell>
        <mxCell id="VzqxZdW9rMvLeSnxfI6S-48" style="rounded=0;orthogonalLoop=1;jettySize=auto;html=1;endArrow=none;endFill=0;entryX=0.5;entryY=0;entryDx=0;entryDy=0;" edge="1" source="VzqxZdW9rMvLeSnxfI6S-49" target="VzqxZdW9rMvLeSnxfI6S-30" parent="VzqxZdW9rMvLeSnxfI6S-53">
          <mxGeometry relative="1" as="geometry">
            <mxPoint x="210" y="235" as="targetPoint" />
          </mxGeometry>
        </mxCell>
        <mxCell id="VzqxZdW9rMvLeSnxfI6S-49" value="email" style="ellipse;whiteSpace=wrap;html=1;align=center;" vertex="1" parent="VzqxZdW9rMvLeSnxfI6S-53">
          <mxGeometry x="50" y="85" width="100" height="40" as="geometry" />
        </mxCell>
        <mxCell id="VzqxZdW9rMvLeSnxfI6S-50" style="rounded=0;orthogonalLoop=1;jettySize=auto;html=1;entryX=0.5;entryY=0;entryDx=0;entryDy=0;endArrow=none;endFill=0;" edge="1" source="VzqxZdW9rMvLeSnxfI6S-51" target="VzqxZdW9rMvLeSnxfI6S-30" parent="VzqxZdW9rMvLeSnxfI6S-53">
          <mxGeometry relative="1" as="geometry" />
        </mxCell>
        <mxCell id="VzqxZdW9rMvLeSnxfI6S-51" value="department" style="ellipse;whiteSpace=wrap;html=1;align=center;" vertex="1" parent="VzqxZdW9rMvLeSnxfI6S-53">
          <mxGeometry y="205" width="100" height="40" as="geometry" />
        </mxCell>
        <mxCell id="VzqxZdW9rMvLeSnxfI6S-52" style="rounded=0;orthogonalLoop=1;jettySize=auto;html=1;exitX=0.5;exitY=1;exitDx=0;exitDy=0;endArrow=none;endFill=0;" edge="1" source="VzqxZdW9rMvLeSnxfI6S-47" parent="VzqxZdW9rMvLeSnxfI6S-53">
          <mxGeometry relative="1" as="geometry">
            <mxPoint x="210" y="255" as="targetPoint" />
          </mxGeometry>
        </mxCell>
        <mxCell id="VzqxZdW9rMvLeSnxfI6S-54" value="sy" style="ellipse;whiteSpace=wrap;html=1;align=center;" vertex="1" parent="1">
          <mxGeometry x="-160" y="670" width="100" height="40" as="geometry" />
        </mxCell>
        <mxCell id="VzqxZdW9rMvLeSnxfI6S-55" value="semester" style="ellipse;whiteSpace=wrap;html=1;align=center;" vertex="1" parent="1">
          <mxGeometry x="-90" y="710" width="100" height="40" as="geometry" />
        </mxCell>
        <mxCell id="VzqxZdW9rMvLeSnxfI6S-56" value="&lt;u&gt;classid&lt;/u&gt;" style="ellipse;whiteSpace=wrap;html=1;align=center;" vertex="1" parent="1">
          <mxGeometry x="-170" y="610" width="100" height="40" as="geometry" />
        </mxCell>
        <mxCell id="VzqxZdW9rMvLeSnxfI6S-57" value="classcode" style="ellipse;whiteSpace=wrap;html=1;align=center;" vertex="1" parent="1">
          <mxGeometry x="30" y="680" width="100" height="40" as="geometry" />
        </mxCell>
        <mxCell id="VzqxZdW9rMvLeSnxfI6S-58" value="description" style="ellipse;whiteSpace=wrap;html=1;align=center;" vertex="1" parent="1">
          <mxGeometry x="60" y="620" width="100" height="40" as="geometry" />
        </mxCell>
      </root>
    </mxGraphModel>
  </diagram>
</mxfile>
